# xmcd
#
# Track frame offsets: 
#        150
#        14171
#        28964
#        40229
#        57216
#
# Disc length: 984 seconds
#
# Revision: 1
# Processed by: cddbd v1.5.2PL0 Copyright (c) Steve Scherf et al.
# Submitted via: ExactAudioCopy v1.0b3
#
DISCID=4103d605
DTITLE=Hugh Laurie - Didn't It Rain [CD2)
DYEAR=2013
DGENRE=Blues
TTITLE0=Day and Night
TTITLE1=Junco Partner
TTITLE2=Louisiana Blues
TTITLE3=Staggerlee
TTITLE4=Unchain My Heart
EXTD=
EXTT0=
EXTT1=
EXTT2=
EXTT3=
EXTT4=
PLAYORDER=
